<svg xmlns="http://www.w3.org/2000/svg" fill="none" viewBox="0 0 164 186" class="size-52" aria-label="Acquia Certified Developer - Drupal 7"><path fill="#6E7497" fill-rule="evenodd" d="M77.162.816C74.07 4.978 69.952 9 64.585 13.412l-.002.002c-4.02 3.301-8.434 6.575-12.999 9.948l-.02.015-.618.45-.012.009c-5.25 3.856-9.806 7.274-14.334 11.016l-.012.01-.013.01C19.302 49.014.585 68.966.418 103.753c.02 38.889 33.903 82.06 81.682 82.063a79.9 79.9 0 0 0 31.779-6.611 79.2 79.2 0 0 0 26.426-18.675l.024-.026.024-.025c14.615-15.396 22.848-35.665 23.065-56.787-.013-37.474-20.79-56.813-39.941-70.191l-.012-.008c-5.25-3.684-10.741-7.103-16.062-10.374l-.003-.001-1.575-.966-.78-.48c-4.496-2.766-8.925-5.491-13.014-8.272C85.679 9.078 80.818 5.072 77.16.816" clip-rule="evenodd"></path><path fill="url(#Acquia_Certification_Badge_Developer_Drupal_7_svg__a)" fill-rule="evenodd" d="M82.418 163.816c33.137 0 60-26.863 60-60s-26.863-60-60-60-60 26.863-60 60 26.863 60 60 60m0 10c38.66 0 70-31.34 70-70s-31.34-70-70-70-70 31.34-70 70 31.34 70 70 70" clip-rule="evenodd"></path><g filter="url(#Acquia_Certification_Badge_Developer_Drupal_7_svg__b)"><circle cx="82.418" cy="103.816" r="60" fill="#fff"></circle></g><path fill="#232C61" d="M73.887 60.813a2.36 2.36 0 0 1 1.581.633c.167-.428.391-.83.668-1.195a3.62 3.62 0 0 0-2.25-.774 3.69 3.69 0 0 0 0 7.382 3.62 3.62 0 0 0 2.25-.774 5 5 0 0 1-.668-1.195 2.355 2.355 0 1 1-1.581-4.077m-7.627-2.671a.56.56 0 0 0-.528.351l-3.655 8.084h1.441l.527-1.16h4.429l.527 1.16h1.441l-3.655-8.084a.53.53 0 0 0-.527-.351m-1.617 5.975 1.617-3.585 1.616 3.585zm28.013 2.46h1.37v-6.959h-1.37zm-8.928-3.409a3.69 3.69 0 0 0-3.55-3.69c-.07 0-.105.035-.07.07.24.542.6 1.023 1.054 1.406.774.597 1.23 1.3 1.23 2.179a2.32 2.32 0 1 1-4.639 0c0-.879.457-1.582 1.195-2.18.458-.378.819-.86 1.055-1.405.035-.07.035-.106-.036-.106a3.69 3.69 0 0 0-3.62 3.69 3.655 3.655 0 0 0 3.656 3.55c.9.025 1.78-.26 2.495-.808l.668.668h2.038l-1.862-1.757a3.7 3.7 0 0 0 .386-1.617m16.976-3.55v1.054l-.281-.246a2.88 2.88 0 0 0-2.144-1.019 2.95 2.95 0 0 0-2.32 1.055 3.76 3.76 0 0 0-.949 2.6 3.87 3.87 0 0 0 .95 2.672 3.093 3.093 0 0 0 4.498.105l.246-.246v.95h1.371v-6.925zm-.527 5.272a2.04 2.04 0 0 1-1.617.703 1.97 1.97 0 0 1-1.546-.738 2.7 2.7 0 0 1-.598-1.793c-.015-.633.211-1.249.633-1.722a1.86 1.86 0 0 1 1.547-.703 2.04 2.04 0 0 1 1.616.703c.403.496.615 1.12.598 1.758a2.53 2.53 0 0 1-.633 1.792m-10.228-1.792c0 1.44-.738 2.355-1.898 2.355s-1.933-.914-1.933-2.355v-3.48h-1.37v3.48c0 2.144 1.37 3.69 3.268 3.69s3.34-1.546 3.34-3.69v-3.48h-1.407zM66.738 84.859c2.08 0 3.42-1.43 3.42-3.33 0-1.89-1.34-3.34-3.42-3.34h-2.28v6.67zm0-.74h-1.45v-5.19h1.45c1.65 0 2.56 1.16 2.56 2.6 0 1.43-.94 2.59-2.56 2.59m5.442.74v-3.42c.22-.39.85-.77 1.32-.77.11 0 .2.01.29.02v-.77c-.66 0-1.22.38-1.61.88v-.77h-.75v4.83zm6.56 0v-4.83h-.75v3.55c-.28.39-.84.73-1.42.73-.66 0-1.09-.25-1.09-1.1v-3.18h-.75v3.41c0 1.04.53 1.54 1.54 1.54.72 0 1.35-.38 1.72-.8v.68zm3.878.12c1.27 0 2.15-.98 2.15-2.54 0-1.57-.88-2.53-2.15-2.53-.68 0-1.28.35-1.63.84v-.72h-.75v6.67h.75v-2.57c.4.53.97.85 1.63.85m-.19-.67c-.59 0-1.18-.36-1.44-.78v-2.18c.26-.42.85-.77 1.44-.77.97 0 1.55.79 1.55 1.86s-.58 1.87-1.55 1.87m7.303.55v-3.32c0-1.17-.84-1.63-1.87-1.63-.79 0-1.41.26-1.93.8l.35.52c.43-.47.9-.67 1.48-.67.7 0 1.22.37 1.22 1.01v.87c-.39-.44-.94-.65-1.6-.65-.82 0-1.68.5-1.68 1.59 0 1.05.87 1.6 1.68 1.6.65 0 1.21-.23 1.6-.67v.55zm-2.07-.42c-.71 0-1.2-.44-1.2-1.06 0-.61.49-1.05 1.2-1.05.52 0 1.03.2 1.32.59v.92c-.29.4-.8.6-1.32.6m4.333.42v-6.67h-.75v6.67zm5.464 0 2.73-6.1v-.57h-4.55v.74h3.59l-2.69 5.93zM52.017 100.859c2.496 0 4.236-1.584 4.236-4.008 0-2.4-1.74-3.996-4.248-3.996h-3.156v8.004zm-.012-1.5h-1.452v-5.004h1.464c1.632 0 2.496 1.091 2.496 2.495 0 1.369-.924 2.509-2.508 2.509m11.12 1.5v-1.5h-3.96v-1.825h3.877v-1.5h-3.876v-1.68h3.96v-1.5h-5.664v8.005zm5.713 0 3.084-8.004H69.99l-2.22 6.144-2.22-6.144h-1.932l3.084 8.004zm9.487 0v-1.5h-3.96v-1.825h3.876v-1.5h-3.876v-1.68h3.96v-1.5h-5.664v8.005zm6.36 0v-1.5h-3.384v-6.504h-1.716v8.004zm4.624.144c2.412 0 4.176-1.728 4.176-4.14s-1.764-4.14-4.176-4.14c-2.424 0-4.188 1.728-4.188 4.14s1.764 4.14 4.188 4.14m0-1.513c-1.488 0-2.436-1.14-2.436-2.627 0-1.5.948-2.629 2.436-2.629 1.476 0 2.424 1.129 2.424 2.629 0 1.487-.948 2.627-2.424 2.627m7.076 1.369v-2.856h2.04c1.728 0 2.688-1.177 2.688-2.568 0-1.404-.948-2.58-2.688-2.58H94.68v8.004zm1.8-4.356h-1.8v-2.148h1.8c.672 0 1.188.407 1.188 1.08 0 .66-.516 1.067-1.188 1.067m9.66 4.356v-1.5h-3.96v-1.825h3.876v-1.5h-3.876v-1.68h3.96v-1.5h-5.664v8.005zm7.824 0-1.812-3.048c.864-.205 1.764-.973 1.764-2.377 0-1.487-1.032-2.58-2.7-2.58h-3.744v8.005h1.704v-2.844h1.248l1.572 2.844zm-2.988-4.344h-1.8v-2.16h1.8c.672 0 1.188.407 1.188 1.067 0 .684-.516 1.093-1.188 1.093"></path><path stroke="#232C61" d="M42.076 108.859h80"></path><path fill="#232C61" d="M59.42 127.991c1.474 0 2.387-.781 2.948-1.661l-1.1-.55a2.19 2.19 0 0 1-1.848 1.067c-1.452 0-2.53-1.122-2.53-2.651 0-1.551 1.078-2.651 2.53-2.651.781 0 1.496.451 1.848 1.067l1.09-.572c-.54-.88-1.464-1.639-2.938-1.639-2.167 0-3.85 1.529-3.85 3.795 0 2.255 1.683 3.795 3.85 3.795m9.104-.132v-1.133h-3.74v-2.046h3.663v-1.133h-3.663v-1.892h3.74v-1.133h-5.027v7.337zm7.119 0-1.804-2.882c.891-.143 1.749-.858 1.749-2.156 0-1.364-.957-2.299-2.409-2.299h-3.223v7.337h1.287v-2.739h1.287l1.617 2.739zm-2.629-3.872h-1.771v-2.332h1.771c.726 0 1.254.451 1.254 1.155 0 .715-.528 1.177-1.254 1.177m6.899 3.872v-6.204h2.222v-1.133h-5.731v1.133h2.222v6.204zm4.71 0v-7.337h-1.288v7.337zm2.956 0v-3.179h3.663v-1.133h-3.663v-1.892h3.74v-1.133h-5.027v7.337zm6.308 0v-7.337H92.6v7.337zm6.697 0v-1.133h-3.74v-2.046h3.663v-1.133h-3.663v-1.892h3.74v-1.133h-5.027v7.337zm4.17 0c2.288 0 3.828-1.507 3.828-3.674 0-2.145-1.54-3.663-3.839-3.663h-2.728v7.337zm-.011-1.133h-1.441v-5.071h1.452c1.628 0 2.508 1.122 2.508 2.53 0 1.397-.924 2.541-2.519 2.541"></path><path fill="url(#Acquia_Certification_Badge_Developer_Drupal_7_svg__c)" d="m82.076 134.859 1.684 5.182h5.45l-4.41 3.203 1.685 5.182-4.409-3.203-4.408 3.203 1.684-5.182-4.409-3.203h5.45z"></path><defs><linearGradient id="Acquia_Certification_Badge_Developer_Drupal_7_svg__a" x1="41.539" x2="165.583" y1="173.816" y2="105.37" gradientUnits="userSpaceOnUse"><stop stop-color="#131942"></stop><stop offset="1" stop-color="#B7BACB"></stop></linearGradient><linearGradient id="Acquia_Certification_Badge_Developer_Drupal_7_svg__c" x1="77.696" x2="90.987" y1="149.859" y2="142.525" gradientUnits="userSpaceOnUse"><stop stop-color="#EF9B16"></stop><stop offset="0.776" stop-color="#FEC231"></stop></linearGradient><filter id="Acquia_Certification_Badge_Developer_Drupal_7_svg__b" width="128" height="128" x="18.418" y="43.816" color-interpolation-filters="sRGB" filterUnits="userSpaceOnUse"><feFlood flood-opacity="0" result="BackgroundImageFix"></feFlood><feColorMatrix in="SourceAlpha" result="hardAlpha" values="0 0 0 0 0 0 0 0 0 0 0 0 0 0 0 0 0 0 127 0"></feColorMatrix><feOffset dy="4"></feOffset><feGaussianBlur stdDeviation="2"></feGaussianBlur><feComposite in2="hardAlpha" operator="out"></feComposite><feColorMatrix values="0 0 0 0 0 0 0 0 0 0 0 0 0 0 0 0 0 0 0.25 0"></feColorMatrix><feBlend in2="BackgroundImageFix" result="effect1_dropShadow_158_19063"></feBlend><feBlend in="SourceGraphic" in2="effect1_dropShadow_158_19063" result="shape"></feBlend></filter></defs></svg>