<svg xmlns="http://www.w3.org/2000/svg" fill="none" viewBox="0 0 164 186" class="size-52" aria-label="Acquia Certified Site Builder - Drupal 8"><path fill="#6E7497" fill-rule="evenodd" d="M77.162.816C74.07 4.978 69.952 9 64.585 13.412l-.002.002c-4.02 3.301-8.434 6.575-12.999 9.948l-.02.015-.618.45-.012.009c-5.25 3.856-9.806 7.274-14.334 11.016l-.012.01-.013.01C19.302 49.014.585 68.966.418 103.753c.02 38.889 33.903 82.06 81.682 82.063a79.9 79.9 0 0 0 31.779-6.611 79.2 79.2 0 0 0 26.426-18.675l.024-.026.024-.025c14.615-15.396 22.848-35.665 23.065-56.787-.013-37.474-20.79-56.813-39.941-70.191l-.012-.008c-5.25-3.684-10.741-7.103-16.062-10.374l-.003-.001-1.575-.966-.78-.48c-4.496-2.766-8.925-5.491-13.014-8.272C85.679 9.078 80.818 5.072 77.16.816" clip-rule="evenodd"></path><path fill="url(#Acquia_Certification_Badge_Drupal_Site_Builder_Drupal_8_svg__a)" fill-rule="evenodd" d="M82.418 163.816c33.137 0 60-26.863 60-60s-26.863-60-60-60-60 26.863-60 60 26.863 60 60 60m0 10c38.66 0 70-31.34 70-70s-31.34-70-70-70-70 31.34-70 70 31.34 70 70 70" clip-rule="evenodd"></path><g filter="url(#Acquia_Certification_Badge_Drupal_Site_Builder_Drupal_8_svg__b)"><circle cx="82.418" cy="103.816" r="60" fill="#fff"></circle></g><path fill="#232C61" d="M73.887 64.813a2.36 2.36 0 0 1 1.581.633c.167-.428.391-.83.668-1.195a3.62 3.62 0 0 0-2.25-.774 3.69 3.69 0 1 0 0 7.382 3.62 3.62 0 0 0 2.25-.774 5 5 0 0 1-.668-1.195 2.355 2.355 0 1 1-1.581-4.077m-7.627-2.671a.56.56 0 0 0-.528.351l-3.655 8.084h1.441l.527-1.16h4.429l.527 1.16h1.441l-3.655-8.084a.53.53 0 0 0-.527-.351m-1.617 5.975 1.617-3.585 1.616 3.585zm28.013 2.46h1.37v-6.959h-1.37zm-8.928-3.409a3.69 3.69 0 0 0-3.55-3.69c-.07 0-.105.035-.07.07.24.543.6 1.023 1.054 1.406.774.597 1.23 1.3 1.23 2.179a2.319 2.319 0 1 1-4.639 0c0-.879.457-1.582 1.195-2.18.458-.378.819-.86 1.055-1.405.035-.07.035-.106-.036-.106a3.69 3.69 0 0 0-3.62 3.69 3.655 3.655 0 0 0 3.656 3.55c.9.025 1.78-.26 2.495-.808l.668.668h2.038l-1.862-1.757c.25-.503.382-1.056.386-1.617m16.976-3.55v1.054l-.281-.245a2.88 2.88 0 0 0-2.144-1.02 2.95 2.95 0 0 0-2.32 1.055 3.76 3.76 0 0 0-.949 2.6 3.87 3.87 0 0 0 .95 2.672 3.095 3.095 0 0 0 4.498.105l.246-.246v.95h1.371v-6.925zm-.527 5.272a2.04 2.04 0 0 1-1.617.703 1.97 1.97 0 0 1-1.546-.738 2.7 2.7 0 0 1-.598-1.793c-.015-.633.211-1.249.633-1.722a1.86 1.86 0 0 1 1.547-.703 2.04 2.04 0 0 1 1.616.703c.403.496.615 1.12.598 1.758a2.53 2.53 0 0 1-.633 1.792m-10.228-1.792c0 1.44-.738 2.355-1.898 2.355s-1.933-.914-1.933-2.355v-3.48h-1.37v3.48c0 2.144 1.37 3.69 3.268 3.69s3.34-1.546 3.34-3.69v-3.48h-1.407zM66.4 88.859c2.08 0 3.42-1.43 3.42-3.33 0-1.89-1.34-3.34-3.42-3.34h-2.28v6.67zm0-.74h-1.45v-5.19h1.45c1.65 0 2.56 1.16 2.56 2.6 0 1.43-.94 2.59-2.56 2.59m5.443.74v-3.42c.22-.39.85-.77 1.32-.77.11 0 .2.01.29.02v-.77c-.66 0-1.22.38-1.61.88v-.77h-.75v4.83zm6.56 0v-4.83h-.75v3.55c-.28.39-.84.73-1.42.73-.66 0-1.09-.25-1.09-1.1v-3.18h-.75v3.41c0 1.04.53 1.54 1.54 1.54.72 0 1.35-.38 1.72-.8v.68zm3.878.12c1.27 0 2.15-.98 2.15-2.54 0-1.57-.88-2.53-2.15-2.53-.68 0-1.28.35-1.63.84v-.72h-.75v6.67h.75v-2.57c.4.53.97.85 1.63.85m-.19-.67c-.59 0-1.18-.36-1.44-.78v-2.18c.26-.42.85-.77 1.44-.77.97 0 1.55.79 1.55 1.86s-.58 1.87-1.55 1.87m7.303.55v-3.32c0-1.17-.84-1.63-1.87-1.63-.79 0-1.41.26-1.93.8l.35.52c.43-.47.9-.67 1.48-.67.7 0 1.22.37 1.22 1.01v.87c-.39-.44-.94-.65-1.6-.65-.82 0-1.68.5-1.68 1.59 0 1.05.87 1.6 1.68 1.6.65 0 1.21-.23 1.6-.67v.55zm-2.07-.42c-.71 0-1.2-.44-1.2-1.06 0-.61.49-1.05 1.2-1.05.52 0 1.03.2 1.32.59v.92c-.29.4-.8.6-1.32.6m4.333.42v-6.67h-.75v6.67zm6.244.12c1.31 0 2.39-.68 2.39-1.81 0-.89-.76-1.5-1.59-1.75.77-.22 1.49-.73 1.49-1.6 0-1.2-1.19-1.73-2.29-1.73-1.11 0-2.28.53-2.28 1.73 0 .87.71 1.38 1.48 1.6-.83.25-1.59.86-1.59 1.75 0 1.14 1.07 1.81 2.39 1.81m0-3.9c-.4-.07-1.44-.34-1.44-1.15 0-.69.63-1.1 1.44-1.1.8 0 1.45.41 1.45 1.1 0 .81-1.04 1.08-1.45 1.15m0 3.16c-.83 0-1.55-.44-1.55-1.16 0-.87 1.14-1.24 1.55-1.29.41.05 1.55.42 1.55 1.29 0 .72-.73 1.16-1.55 1.16M49.198 104.858c2.496 0 4.236-1.584 4.236-4.008 0-2.4-1.74-3.995-4.248-3.995H46.03v8.003zm-.012-1.5h-1.452v-5.004h1.464c1.632 0 2.496 1.093 2.496 2.496 0 1.368-.924 2.508-2.508 2.508m11.95 1.5-1.812-3.048c.864-.204 1.764-.972 1.764-2.376 0-1.487-1.032-2.58-2.7-2.58h-3.744v8.004h1.704v-2.844h1.248l1.572 2.844zm-2.988-4.344h-1.8v-2.16h1.8c.672 0 1.188.409 1.188 1.069 0 .683-.516 1.091-1.188 1.091m7.818 4.488c2.437 0 3.613-1.368 3.613-3.348v-4.8h-1.74v4.752c0 1.116-.636 1.884-1.873 1.884-1.235 0-1.883-.768-1.883-1.884v-4.751h-1.728v4.799c0 1.98 1.176 3.348 3.611 3.348m6.905-.144v-2.856h2.04c1.728 0 2.688-1.176 2.688-2.567 0-1.404-.948-2.58-2.688-2.58h-3.744v8.003zm1.8-4.356h-1.8v-2.147h1.8c.672 0 1.188.407 1.188 1.08 0 .659-.516 1.067-1.188 1.067m10.57 4.356-3.085-8.004H80.02l-3.084 8.004h1.932l.504-1.356h3.432l.504 1.356zm-2.905-2.856H79.84l1.248-3.443zm8.671 2.856v-1.5h-3.383v-6.504h-1.716v8.004zm7.086.144c2.148 0 3.204-1.104 3.204-2.568 0-2.987-4.596-2.136-4.596-3.395 0-.48.408-.793 1.128-.793.816 0 1.68.276 2.328.877l.948-1.273c-.792-.731-1.848-1.115-3.12-1.115-1.884 0-3.036 1.103-3.036 2.436 0 3.011 4.608 2.039 4.608 3.431 0 .468-.444.888-1.392.888a3.52 3.52 0 0 1-2.544-1.092l-.936 1.332c.756.756 1.86 1.272 3.408 1.272m6.044-.144v-8.004h-1.704v8.004zm5.153 0v-6.504h2.328v-1.5h-6.384v1.5h2.34v6.504zm9.084 0v-1.5h-3.96v-1.824h3.876v-1.5h-3.876v-1.68h3.96v-1.5h-5.664v8.004zm-55.941 12c1.536 0 2.328-.96 2.328-2.172 0-.996-.672-1.824-1.536-1.956.756-.156 1.38-.84 1.38-1.836 0-1.068-.78-2.04-2.304-2.04h-4.212v8.004zm-.504-4.824h-2.136v-1.68h2.136c.576 0 .936.348.936.84 0 .516-.36.84-.936.84m.072 3.324h-2.208v-1.824H62c.66 0 1.02.408 1.02.912 0 .576-.384.912-1.02.912m7.657 1.644c2.436 0 3.612-1.368 3.612-3.348v-4.8h-1.74v4.752c0 1.116-.636 1.884-1.872 1.884s-1.884-.768-1.884-1.884v-4.752h-1.728v4.8c0 1.98 1.176 3.348 3.612 3.348m6.904-.144v-8.004h-1.704v8.004zm6.617 0v-1.5h-3.384v-6.504H78.08v8.004zm4.316 0c2.496 0 4.236-1.584 4.236-4.008 0-2.4-1.74-3.996-4.248-3.996h-3.156v8.004zm-.012-1.5h-1.452v-5.004h1.464c1.632 0 2.496 1.092 2.496 2.496 0 1.368-.924 2.508-2.508 2.508m11.121 1.5v-1.5h-3.96v-1.824h3.876v-1.5h-3.876v-1.68h3.96v-1.5H92.94v8.004zm7.825 0-1.812-3.048c.864-.204 1.764-.972 1.764-2.376 0-1.488-1.032-2.58-2.7-2.58h-3.745v8.004h1.705v-2.844h1.248l1.572 2.844zm-2.988-4.344h-1.8v-2.16h1.8c.672 0 1.188.408 1.188 1.068 0 .684-.516 1.092-1.188 1.092"></path><path stroke="#232C61" d="m42.076 124.859 80-.001"></path><path fill="#232C61" d="M59.42 143.991c1.474 0 2.387-.781 2.948-1.661l-1.1-.55a2.19 2.19 0 0 1-1.848 1.067c-1.452 0-2.53-1.122-2.53-2.651 0-1.551 1.078-2.651 2.53-2.651.781 0 1.496.451 1.848 1.067l1.09-.572c-.54-.88-1.464-1.639-2.938-1.639-2.167 0-3.85 1.529-3.85 3.795 0 2.255 1.683 3.795 3.85 3.795m9.104-.132v-1.133h-3.74v-2.046h3.663v-1.133h-3.663v-1.892h3.74v-1.133h-5.027v7.337zm7.119 0-1.804-2.882c.891-.143 1.749-.858 1.749-2.156 0-1.364-.957-2.299-2.409-2.299h-3.223v7.337h1.287v-2.739h1.287l1.617 2.739zm-2.629-3.872h-1.771v-2.332h1.771c.726 0 1.254.451 1.254 1.155 0 .715-.528 1.177-1.254 1.177m6.899 3.872v-6.204h2.222v-1.133h-5.731v1.133h2.222v6.204zm4.71 0v-7.337h-1.288v7.337zm2.956 0v-3.179h3.663v-1.133h-3.663v-1.892h3.74v-1.133h-5.027v7.337zm6.308 0v-7.337H92.6v7.337zm6.697 0v-1.133h-3.74v-2.046h3.663v-1.133h-3.663v-1.892h3.74v-1.133h-5.027v7.337zm4.17 0c2.288 0 3.828-1.507 3.828-3.674 0-2.145-1.54-3.663-3.839-3.663h-2.728v7.337zm-.011-1.133h-1.441v-5.071h1.452c1.628 0 2.508 1.122 2.508 2.53 0 1.397-.924 2.541-2.519 2.541"></path><defs><linearGradient id="Acquia_Certification_Badge_Drupal_Site_Builder_Drupal_8_svg__a" x1="41.539" x2="165.583" y1="173.816" y2="105.37" gradientUnits="userSpaceOnUse"><stop stop-color="#131942"></stop><stop offset="1" stop-color="#B7BACB"></stop></linearGradient><filter id="Acquia_Certification_Badge_Drupal_Site_Builder_Drupal_8_svg__b" width="128" height="128" x="18.418" y="43.816" color-interpolation-filters="sRGB" filterUnits="userSpaceOnUse"><feFlood flood-opacity="0" result="BackgroundImageFix"></feFlood><feColorMatrix in="SourceAlpha" result="hardAlpha" values="0 0 0 0 0 0 0 0 0 0 0 0 0 0 0 0 0 0 127 0"></feColorMatrix><feOffset dy="4"></feOffset><feGaussianBlur stdDeviation="2"></feGaussianBlur><feComposite in2="hardAlpha" operator="out"></feComposite><feColorMatrix values="0 0 0 0 0 0 0 0 0 0 0 0 0 0 0 0 0 0 0.25 0"></feColorMatrix><feBlend in2="BackgroundImageFix" result="effect1_dropShadow_158_19058"></feBlend><feBlend in="SourceGraphic" in2="effect1_dropShadow_158_19058" result="shape"></feBlend></filter></defs></svg>